#!OML:ASF X:\für Bonn\!DataBase\2005_08_10_Bjorn_Final\c3d\bjorn.ASF
:FULLY-SPECIFIED
:DEGREES
171
root -15.4318 17.8371 -1.84618 -177.024 -210.85 -186.019
lowerback -3.49787 1.21995 1.50741
upperback 7.01354 1.84176 -3.19523
thorax 9.55351 1.17737 -4.03202
lowerneck -4.13584 4.75732 5.24086
upperneck 3.5598 6.11618 -1.65804
head 2.06307 3.08436 -1.22609
rclavicle -7.03698e-014 3.02153e-014
rhumerus -48.4118 11.2274 -102.095
rradius 71.8971
rwrist 10.0062
rhand -17.8658 24.1171
rfingers 7.12502
rthumb 8.3998 -5.69582
lclavicle -7.03698e-014 3.02153e-014
lhumerus -29.9333 -18.9435 95.2518
lradius 90.322
lwrist -0.011065
lhand -38.8904 -20.2933
lfingers 7.12502
lthumb -11.898 9.3486
rfemur -35.745 -10.0904 9.76909
rtibia 68.4822
rfoot -17.3742 9.12999
rtoes -28.168
lfemur -4.35119 -5.55577 -31.6542
ltibia 37.3779
lfoot -25.8845 -0.728268
ltoes 8.33385
172
root -15.2704 17.921 -1.59847 -177.137 -211.673 -186.446
lowerback -3.5315 0.812909 1.52118
upperback 6.8928 1.25809 -2.86388
thorax 9.37602 0.871778 -3.75183
lowerneck -4.07547 5.00295 5.22463
upperneck 3.84241 6.46078 -1.9177
head 2.16887 3.25205 -1.29221
rclavicle 5.56597e-015 1.11319e-014
rhumerus -49.5511 10.7938 -101.426
rradius 72.3019
rwrist 9.48398
rhand -18.2148 24.133
rfingers 7.12502
rthumb 8.06305 -5.69323
lclavicle 5.56597e-015 1.11319e-014
lhumerus -29.8013 -19.7134 95.3359
lradius 90.7425
lwrist 0.0151928
lhand -39.1734 -20.7974
lfingers 7.12502
lthumb -12.1709 8.82858
rfemur -36.8559 -10.0292 10.661
rtibia 66.6226
rfoot -16.9692 9.36869
rtoes -27.8585
lfemur -2.42577 -5.28876 -30.9763
ltibia 35.3062
lfoot -24.6668 -1.53847
ltoes 5.63007
173
root -15.1049 18.008 -1.34944 -177.266 -212.533 -186.86
lowerback -3.56896 0.352793 1.50927
upperback 6.78895 0.607124 -2.53203
thorax 9.22205 0.532743 -3.46416
lowerneck -4.09621 5.29083 5.24578
upperneck 4.15387 6.85779 -2.18941
head 2.30483 3.44532 -1.36393
rclavicle -1.59028e-014 -6.36111e-015
rhumerus -50.6597 10.5362 -100.766
rradius 72.7284
rwrist 9.05578
rhand -18.6394 24.131
rfingers 7.12502
rthumb 7.65322 -5.71056
lclavicle -1.59028e-014 -6.36111e-015
lhumerus -29.6444 -20.421 95.2841
lradius 91.0748
lwrist 0.0447857
lhand -39.4629 -21.2733
lfingers 7.12502
lthumb -12.45 8.33587
rfemur -37.7727 -10.0238 11.5002
rtibia 64.5338
rfoot -16.6124 9.61858
rtoes -28.6368
lfemur -0.4554 -5.01219 -30.2843
ltibia 33.168
lfoot -23.2554 -2.44248
ltoes 2.58542
174
root -14.9356 18.0999 -1.09989 -177.337 -213.459 -187.183
lowerback -3.6707 -0.0922576 1.51188
upperback 6.71764 -0.0160826 -2.27966
thorax 9.15431 0.214392 -3.26719
lowerneck -4.158 5.54457 5.31443
upperneck 4.42782 7.20265 -2.40223
head 2.43509 3.61388 -1.42566
rclavicle -2.06736e-014 3.33958e-014
rhumerus -51.6937 10.2058 -100.137
rradius 73.1076
rwrist 8.73131
rhand -19.2988 24.1157
rfingers 7.12502
rthumb 7.01671 -5.74802
lclavicle -2.06736e-014 3.33958e-014
lhumerus -29.3893 -21.3463 95.0817
lradius 91.2975
lwrist 0.0903078
lhand -39.6497 -21.3434
lfingers 7.12502
lthumb -12.6301 8.25478
rfemur -38.5265 -10.0935 12.221
rtibia 62.2255
rfoot -16.1059 10.0221
rtoes -29.1343
lfemur 1.49022 -4.82806 -29.6456
ltibia 30.9894
lfoot -21.5356 -3.7091
ltoes 0.318057
175
root -14.7609 18.1935 -0.848819 -177.38 -214.386 -187.467
lowerback -3.89003 -0.51503 1.51657
upperback 6.71736 -0.607566 -2.03726
thorax 9.24317 -0.0838054 -3.08275
lowerneck -4.19341 5.77335 5.3532
upperneck 4.48143 7.51774 -2.64788
head 2.48738 3.76455 -1.49666
rclavicle -4.45278e-014 3.65764e-014
rhumerus -52.5707 9.80525 -99.4192
rradius 73.4707
rwrist 8.42781
rhand -19.9125 24.2071
rfingers 7.12502
rthumb 6.4243 -5.67549
lclavicle -4.45278e-014 3.65764e-014
lhumerus -28.9753 -22.3701 94.8114
lradius 91.3906
lwrist 0.115133
lhand -39.8128 -21.7365
lfingers 7.12502
lthumb -12.7873 7.85184
rfemur -39.1072 -10.0961 12.8432
rtibia 59.7163
rfoot -15.4358 10.5344
rtoes -29.5716
lfemur 3.38011 -4.64496 -29.0035
ltibia 28.8238
lfoot -19.3839 -5.27574
ltoes -0.713784
176
root -14.5837 18.2866 -0.597798 -177.375 -215.352 -187.654
lowerback -4.12914 -0.945286 1.45484
upperback 6.74098 -1.20138 -1.81902
thorax 9.37643 -0.385157 -2.89118
lowerneck -4.3459 5.99911 5.41575
upperneck 4.59306 7.8241 -2.92387
head 2.5844 3.90961 -1.57776
rclavicle -6.87795e-014 3.33958e-014
rhumerus -53.2368 9.40309 -98.7051
rradius 73.8709
rwrist 8.01879
rhand -20.2861 24.0888
rfingers 7.12502
rthumb 6.06364 -5.80442
lclavicle -6.87795e-014 3.33958e-014
lhumerus -28.4802 -23.4175 94.4788
lradius 91.429
lwrist 0.188592
lhand -39.9006 -22.2541
lfingers 7.12502
lthumb -12.872 7.32899
rfemur -39.5338 -10.1278 13.3272
rtibia 57.0658
rfoot -14.6482 10.9831
rtoes -30.3913
lfemur 5.17359 -4.35558 -28.3359
ltibia 26.7261
lfoot -16.6784 -7.35443
ltoes 0.464393
